<?xml version="1.0" standalone="no"?>
<!DOCTYPE svg PUBLIC "-//W3C//DTD SVG 20010904//EN"
 "http://www.w3.org/TR/2001/REC-SVG-20010904/DTD/svg10.dtd">
<svg version="1.0" xmlns="http://www.w3.org/2000/svg"
 width="350.000000pt" height="195.000000pt" viewBox="0 0 350.000000 195.000000"
 preserveAspectRatio="xMidYMid meet">
<metadata>
Created by potrace 1.16, written by Peter Selinger 2001-2019
</metadata>
<g transform="translate(0.000000,195.000000) scale(0.100000,-0.100000)"
fill="#000000" stroke="none">
<path d="M3045 1709 c-38 -11 -92 -54 -78 -62 5 -3 20 4 34 16 29 26 53 33 46
15 -2 -7 -10 -12 -17 -10 -6 1 -10 -3 -7 -10 2 -7 -1 -20 -8 -28 -8 -8 -30
-71 -50 -140 -42 -139 -71 -199 -114 -229 l-29 -21 -17 78 c-9 42 -18 82 -20
87 -4 13 -8 -22 -5 -53 1 -20 -1 -22 -17 -13 -18 9 -19 6 -16 -29 5 -63 -19
-40 -49 48 -42 121 -50 160 -38 180 9 15 10 14 5 -5 -5 -18 -3 -22 10 -17 12
5 15 14 10 33 -13 53 -47 110 -82 137 -34 26 -38 27 -81 15 -25 -6 -57 -21
-72 -31 -36 -26 -39 -25 -78 11 -28 27 -39 31 -69 26 -19 -4 -42 -14 -50 -24
-8 -10 -11 -12 -8 -4 5 9 -1 8 -19 -4 -26 -17 -38 -43 -13 -29 6 4 4 -2 -7
-14 -10 -12 -22 -19 -26 -17 -5 3 -6 -3 -4 -13 3 -9 -4 -27 -15 -38 -11 -12
-17 -25 -14 -28 4 -3 1 -6 -6 -6 -7 0 -10 -4 -7 -9 3 -4 -3 -16 -14 -26 -11
-10 -17 -21 -15 -26 3 -4 -1 -14 -9 -22 -9 -8 -33 -66 -55 -130 -22 -63 -50
-134 -63 -158 -12 -24 -23 -48 -23 -54 0 -6 28 -9 70 -7 88 4 127 11 120 23
-4 5 1 6 10 3 25 -10 80 58 104 128 26 76 26 81 2 66 -11 -7 -18 -14 -16 -18
1 -3 -4 -12 -13 -20 -14 -13 -15 -12 -8 5 29 69 45 118 34 104 -13 -16 -38
-15 -38 2 0 6 4 7 10 4 5 -3 7 0 4 8 -6 15 77 143 127 195 35 38 46 34 55 -22
3 -21 10 -48 15 -60 8 -18 9 -17 4 7 -7 38 20 36 33 -2 6 -16 19 -34 30 -40
11 -6 25 -31 32 -58 7 -26 17 -52 21 -58 5 -5 9 -15 9 -23 0 -25 62 -155 86
-181 27 -30 26 -35 -8 -22 -21 8 -80 73 -75 82 1 3 -3 -1 -8 -7 -8 -8 -13 -8
-22 1 -7 7 -10 15 -7 17 2 3 -3 5 -11 5 -19 0 -19 0 5 -48 36 -70 62 -79 238
-79 171 0 200 7 252 62 52 53 95 121 81 126 -9 3 -8 10 4 28 9 14 13 29 10 34
-3 6 -2 10 3 10 5 0 14 11 20 25 14 31 15 38 3 30 -5 -3 -8 11 -7 32 3 36 77
217 97 238 5 5 9 13 9 17 0 11 -147 9 -185 -3z"/>
<path d="M1225 1634 c20 -16 20 -16 -3 -11 -18 4 -21 3 -13 -7 6 -7 22 -11 36
-8 15 2 25 0 25 -8 0 -7 -8 -9 -20 -5 -14 5 -20 2 -20 -9 0 -9 -5 -16 -11 -16
-5 0 -8 4 -4 9 3 5 0 13 -6 17 -9 5 -10 0 -7 -14 4 -12 1 -25 -6 -30 -20 -12
-58 -71 -51 -81 3 -6 -4 -9 -15 -8 -22 1 -27 13 -7 20 6 3 -3 3 -20 0 -21 -3
-33 -1 -33 6 0 6 -14 10 -32 10 -30 -1 -31 -2 -8 -8 14 -3 39 -13 55 -22 17
-10 46 -15 67 -13 21 1 40 -1 43 -6 3 -6 -2 -7 -12 -4 -16 5 -16 4 1 -10 11
-9 17 -19 13 -22 -11 -12 13 -33 31 -27 15 4 15 3 2 -6 -14 -10 -7 -16 13 -12
5 1 6 -3 2 -9 -3 -5 5 -25 18 -42 43 -59 42 -64 -24 -105 -33 -21 -76 -48 -95
-60 -43 -28 -51 -28 -59 -3 -3 11 -27 34 -51 51 -34 23 -52 29 -72 25 -20 -5
-23 -4 -12 4 26 17 -66 12 -107 -7 -40 -18 -83 -51 -83 -64 0 -4 6 -9 13 -12
6 -2 4 -3 -6 -1 -41 6 -71 -129 -53 -233 28 -159 281 -208 372 -71 11 15 23
28 27 28 11 0 120 -68 155 -96 l25 -21 -21 -35 c-29 -47 -110 -121 -158 -146
-117 -60 -263 -68 -364 -21 -72 34 -147 103 -199 183 -53 80 -70 136 -80 251
l-8 90 -2 -72 c-1 -49 -6 -76 -16 -87 -8 -8 -15 -21 -15 -30 0 -35 -20 -25
-21 11 -2 34 -2 35 -6 8 -3 -16 -13 -38 -24 -48 -10 -10 -19 -21 -19 -26 0 -9
-46 -61 -54 -61 -3 0 -7 12 -9 28 -3 15 -3 4 -2 -24 2 -28 -1 -57 -6 -65 -5
-9 -10 28 -12 96 -3 109 -3 108 -5 -30 -3 -200 -4 -198 126 -283 385 -252 485
-312 519 -312 34 0 75 21 208 105 28 17 57 34 65 38 43 20 347 237 364 261 20
27 21 39 21 421 l0 394 -30 31 c-16 17 -35 28 -43 25 -7 -2 -11 -1 -7 4 7 13
-62 54 -76 45 -7 -4 -9 -3 -5 4 10 16 -15 27 -26 11 -7 -11 -8 -11 -6 2 3 16
-90 88 -152 118 -24 12 -24 12 -5 -5z m11 -526 c-1 -27 3 -33 19 -33 14 0 21
8 25 29 3 16 11 31 19 34 11 4 13 -2 8 -28 -6 -26 -4 -33 13 -37 26 -7 26 -19
0 -26 -25 -6 -29 -67 -5 -67 8 0 15 -7 15 -15 0 -8 -9 -15 -19 -15 -15 0 -21
-8 -23 -32 -2 -17 -9 -34 -17 -36 -11 -4 -13 3 -8 32 6 36 5 37 -21 34 -22 -2
-28 -9 -30 -35 -2 -21 -9 -33 -18 -33 -12 0 -13 8 -8 35 5 28 3 35 -10 35 -9
0 -16 7 -16 15 0 8 6 15 14 15 23 0 30 52 9 68 -17 12 -17 14 -1 23 9 5 19 23
23 39 9 41 33 39 31 -2z"/>
<path d="M2922 998 c-7 -7 -12 -22 -12 -35 0 -13 -4 -23 -10 -23 -5 0 -10 -7
-10 -15 0 -8 5 -15 10 -15 6 0 10 -25 10 -55 0 -42 3 -55 15 -55 12 0 15 13
15 55 0 52 1 55 24 55 23 0 25 -4 28 -52 3 -49 5 -53 31 -56 15 -2 27 1 27 7
0 6 -7 11 -15 11 -11 0 -15 12 -15 44 0 50 18 65 43 35 19 -21 42 -16 58 12
22 41 -31 80 -61 44 -18 -21 -40 -19 -40 5 0 11 -6 20 -14 20 -7 0 -16 -9 -19
-20 -3 -12 -14 -20 -26 -20 -14 0 -21 6 -21 20 0 11 7 20 15 20 8 0 15 7 15
15 0 18 -31 20 -48 3z"/>
<path d="M2077 994 c-4 -4 -7 -49 -7 -101 0 -76 3 -93 15 -93 12 0 15 15 16
68 0 37 3 60 6 52 22 -66 47 -120 55 -118 6 2 21 28 34 58 l23 55 1 -57 c0
-45 3 -58 15 -58 12 0 15 18 15 100 0 125 -16 133 -55 29 -15 -38 -30 -68 -33
-64 -3 3 -17 33 -31 67 -25 59 -40 76 -54 62z"/>
<path d="M2563 940 c-25 -10 -36 -41 -31 -91 4 -42 37 -62 77 -48 33 13 41 26
41 70 0 57 -39 88 -87 69z"/>
<path d="M2795 938 c-29 -16 -35 -28 -35 -70 0 -77 94 -98 119 -27 12 35 -2
85 -29 99 -23 12 -30 12 -55 -2z"/>
<path d="M2530 492 l0 -253 118 3 117 3 3 27 3 27 -93 3 -93 3 0 80 0 80 78 3
77 3 0 29 0 30 -80 0 -80 0 0 75 0 74 88 3 c86 3 87 3 90 30 l3 27 -115 3
-116 3 0 -253z"/>
<path d="M2070 496 l0 -244 25 -4 c13 -3 27 -3 30 0 3 3 5 93 5 201 l0 196 23
-35 c12 -19 65 -109 117 -199 90 -156 98 -166 128 -168 l32 -3 0 63 c0 34 3
146 7 250 l6 187 -31 0 -32 0 0 -202 0 -203 -116 203 -115 202 -40 0 -39 0 0
-244z"/>
<path d="M2810 710 l0 -30 63 0 62 0 0 -52 c0 -29 1 -128 3 -220 l2 -168 25 0
c21 0 25 5 25 33 0 17 1 116 3 219 l2 188 63 0 62 0 0 30 0 30 -155 0 -155 0
0 -30z"/>
</g>
</svg>
