<?xml version="1.0" standalone="no"?>
<!DOCTYPE svg PUBLIC "-//W3C//DTD SVG 20010904//EN"
 "http://www.w3.org/TR/2001/REC-SVG-20010904/DTD/svg10.dtd">
<svg version="1.0" xmlns="http://www.w3.org/2000/svg"
 width="666.000000pt" height="375.000000pt" viewBox="0 0 666.000000 375.000000"
 preserveAspectRatio="xMidYMid meet">
<metadata>
Created by potrace 1.16, written by Peter Selinger 2001-2019
</metadata>
<g transform="translate(0.000000,375.000000) scale(0.100000,-0.100000)"
fill="#000000" stroke="none">
<path d="M3519 3593 c0 -5 0 -34 1 -67 3 -120 -67 -229 -221 -343 -107 -79
-195 -169 -214 -219 -38 -101 -1 -195 135 -335 73 -75 93 -91 100 -79 16 24
12 36 -29 85 -58 71 -101 160 -101 212 0 69 45 144 131 216 63 54 153 143 190
190 63 78 89 176 69 265 -7 31 -17 63 -22 70 -11 13 -38 17 -39 5z m48 -143
c0 -20 -3 -26 -9 -18 -6 10 -8 9 -8 -4 0 -9 4 -19 9 -22 5 -3 7 -15 4 -26 -3
-11 -9 -18 -13 -15 -5 3 -12 0 -16 -6 -4 -8 -3 -9 4 -5 20 12 14 -12 -13 -55
-14 -22 -30 -37 -34 -34 -5 2 -8 -1 -7 -8 0 -6 -3 -12 -9 -12 -5 0 -9 3 -8 7
2 4 -4 5 -12 2 -8 -4 -15 -10 -15 -16 0 -5 4 -7 9 -3 5 3 13 0 16 -6 9 -14
-92 -112 -107 -103 -6 4 -8 3 -5 -3 6 -10 -16 -33 -99 -103 -16 -13 -37 -23
-46 -22 -10 2 -18 -2 -18 -8 0 -6 4 -9 9 -5 13 7 24 -12 15 -26 -4 -8 -9 -7
-15 2 -6 10 -9 7 -9 -11 -1 -21 -2 -23 -11 -8 -5 10 -16 15 -25 11 -12 -4 -11
-8 6 -20 26 -18 26 -49 0 -56 -21 -5 -28 -27 -9 -27 5 0 7 5 4 10 -3 6 -2 10
3 10 12 0 25 -77 16 -92 -4 -6 -3 -8 3 -5 6 4 21 -18 36 -51 14 -31 39 -72 56
-91 17 -19 31 -39 31 -45 -1 -13 -30 24 -30 37 0 4 -5 5 -10 2 -6 -3 -13 2
-17 12 -6 17 -63 77 -63 66 0 -2 -7 2 -15 11 -8 8 -15 19 -15 24 0 5 -9 17
-20 27 -11 10 -20 24 -20 30 0 18 32 28 42 13 5 -9 8 -8 8 5 0 15 -5 17 -29
12 -32 -7 -51 9 -32 28 9 9 11 8 8 -3 -2 -8 -2 -12 0 -7 3 4 10 4 16 1 9 -5 9
-4 0 6 -6 7 -9 19 -6 26 7 20 -7 17 -23 -3 -12 -17 -12 -17 -11 2 1 11 11 25
21 30 26 14 32 35 9 35 -15 0 -16 -2 -3 -10 13 -8 12 -10 -2 -10 -11 0 -18 8
-18 20 0 15 7 20 28 21 24 1 25 2 5 7 -21 7 -20 9 18 49 21 23 48 47 59 53 11
6 20 17 20 25 0 18 16 20 23 3 3 -7 6 -3 6 10 1 12 5 22 10 22 12 0 85 64 169
148 40 40 77 70 82 67 5 -3 7 1 4 9 -3 8 0 25 7 38 7 13 14 26 15 31 1 4 3 10
4 15 3 8 7 23 9 35 0 4 5 7 9 7 5 0 9 -14 9 -30z"/>
<path d="M3689 3196 c-61 -17 -204 -96 -258 -143 -72 -61 -101 -116 -101 -190
0 -69 10 -95 65 -172 54 -75 58 -93 34 -154 l-21 -52 26 24 c14 14 26 30 26
38 0 7 4 13 10 13 6 0 6 10 -1 28 -14 40 -43 92 -50 92 -9 0 -34 40 -43 66 -5
15 -1 24 16 33 18 9 18 10 3 6 -11 -4 -24 -7 -29 -8 -12 -3 -18 41 -6 48 6 3
10 16 9 28 0 21 -1 21 -8 3 -16 -42 -20 24 -4 70 13 39 17 43 32 32 14 -12 15
-11 2 5 -11 13 -11 20 -1 32 7 8 17 12 24 8 6 -3 8 -3 4 2 -11 11 12 36 26 28
6 -3 8 -3 4 2 -4 4 11 21 34 37 32 24 42 27 49 16 6 -8 9 -9 9 -1 0 14 28 43
41 43 6 0 7 -5 3 -12 -4 -7 -3 -8 5 -4 6 4 9 12 6 17 -4 5 2 9 12 9 11 0 25 6
33 13 8 6 4 -1 -10 -18 -14 -16 -31 -34 -38 -38 -7 -5 -28 -22 -47 -38 -20
-18 -36 -26 -40 -19 -3 5 -12 10 -18 10 -7 0 -4 -5 6 -11 18 -10 18 -12 -4
-35 -25 -27 -44 -32 -36 -9 9 23 -11 28 -23 5 -6 -11 -15 -18 -21 -15 -5 4 -9
2 -9 -3 0 -5 9 -12 19 -15 15 -3 18 -1 14 11 -4 9 -2 13 4 9 6 -4 9 -34 7 -71
-2 -36 1 -68 6 -71 6 -3 10 -11 10 -16 0 -6 -4 -8 -8 -5 -5 3 -9 -2 -9 -10 0
-8 5 -13 12 -11 14 6 44 -25 76 -78 19 -30 23 -47 18 -70 -4 -16 -7 -22 -8
-13 0 9 -5 20 -11 23 -6 4 -7 -1 -3 -11 5 -13 3 -15 -8 -10 -8 4 -4 -1 8 -11
19 -15 20 -21 9 -35 -18 -24 -29 -22 -21 3 5 15 4 19 -5 14 -6 -4 -9 -16 -6
-28 5 -22 -9 -57 -24 -57 -4 0 -22 -13 -38 -30 -22 -21 -26 -30 -15 -30 27 0
120 103 134 148 15 52 1 107 -39 155 -43 50 -66 110 -58 151 10 50 83 125 196
199 123 81 131 101 29 73z"/>
<path d="M3813 2550 c-13 -5 -23 -16 -23 -25 0 -11 11 -15 46 -15 102 0 153
-77 104 -158 -28 -45 -70 -85 -134 -126 -59 -38 -72 -51 -56 -61 19 -12 145
39 135 55 -4 6 1 7 11 3 13 -5 15 -3 9 7 -5 9 -4 11 4 6 17 -11 88 40 117 83
35 53 34 138 -3 182 -15 17 -42 38 -60 45 -36 16 -116 17 -150 4z"/>
<path d="M2995 2536 c-57 -14 -194 -65 -213 -80 -7 -5 -12 -21 -10 -35 3 -23
11 -28 78 -44 228 -57 828 -13 875 63 8 14 -8 13 -22 -1 -6 -6 -17 -9 -25 -6
-8 3 1 11 22 20 44 20 36 21 -80 3 -218 -34 -523 -46 -630 -26 -30 6 -56 13
-59 16 -9 8 19 22 92 45 72 23 88 36 66 50 -18 11 -32 10 -94 -5z"/>
<path d="M5642 2388 c-18 -18 -15 -41 13 -78 44 -60 67 -135 59 -200 -7 -62
13 -123 43 -134 21 -8 53 2 53 17 0 6 13 -2 30 -18 16 -16 33 -25 37 -21 11
10 -56 136 -73 136 -8 0 -17 -13 -21 -31 -11 -54 -26 -5 -18 60 6 54 4 64 -37
149 -43 89 -46 109 -14 76 9 -8 33 -18 53 -21 89 -14 165 -82 224 -203 47 -96
65 -120 89 -120 23 0 72 -39 49 -40 -8 0 -23 -6 -33 -13 -16 -11 -17 -17 -7
-36 16 -29 98 -81 129 -81 l24 0 -24 29 c-13 16 -34 36 -48 45 l-25 15 26 1
c15 0 32 7 39 15 17 20 -5 44 -83 92 -54 33 -63 43 -93 110 -60 131 -126 193
-257 238 -81 28 -117 31 -135 13z"/>
<path d="M2973 2300 c-28 -12 -44 -27 -48 -43 -11 -42 10 -65 81 -87 96 -29
401 -29 547 1 56 11 107 25 112 31 7 7 3 9 -12 5 -13 -3 -26 -1 -29 4 -3 5 4
9 16 9 28 0 18 14 -22 33 -29 14 -41 14 -108 1 -88 -16 -424 -19 -465 -4 -20
7 -26 16 -22 29 9 35 -6 41 -50 21z"/>
<path d="M1590 2295 c-9 -11 -16 -13 -24 -5 -5 5 -17 10 -25 10 -13 -1 -13 -2
2 -11 29 -17 21 -47 -18 -64 -45 -18 -65 -63 -65 -145 0 -47 -4 -62 -16 -67
-30 -11 -49 11 -52 61 -4 55 -13 59 -31 11 -12 -35 -50 -69 -86 -78 -20 -5
-20 -5 0 -6 27 -1 62 24 86 63 l19 31 0 -28 c0 -41 17 -67 44 -67 35 0 43 17
48 97 4 77 17 101 69 127 l28 14 4 -106 3 -107 2 117 c1 64 5 123 8 132 8 20
38 21 53 2 13 -16 14 -235 1 -256 -5 -7 -19 -11 -34 -8 -14 3 -23 1 -20 -3 8
-13 48 -11 62 3 9 9 15 9 24 0 7 -7 17 -12 23 -12 5 0 3 5 -7 10 -14 8 -16 30
-17 139 -1 114 1 131 16 140 10 6 13 11 8 11 -6 0 -16 -5 -23 -12 -9 -9 -16
-8 -30 5 -23 21 -36 21 -52 2z"/>
<path d="M3002 2074 c-30 -21 -30 -67 1 -86 105 -68 377 -77 572 -20 79 24 81
42 10 74 -47 21 -62 24 -102 16 -147 -27 -384 -17 -409 17 -14 19 -44 19 -72
-1z"/>
<path d="M2750 1941 c-105 -37 -135 -59 -135 -97 0 -36 25 -49 132 -70 196
-37 712 -42 910 -9 128 22 282 74 300 101 21 32 13 68 -14 72 -17 3 -23 -2
-23 -16 0 -22 -27 -43 -80 -61 -44 -15 -288 -38 -490 -47 -222 -9 -532 18
-577 51 -26 20 -8 33 73 54 45 11 69 22 69 32 0 26 -74 21 -165 -10z"/>
<path d="M4666 1895 c-13 -13 -16 -38 -16 -124 0 -116 9 -139 50 -126 18 6 20
15 21 88 l0 82 16 -35 c9 -19 25 -54 36 -78 42 -93 101 -80 150 31 l32 72 5
-75 5 -75 33 -3 32 -3 0 118 c0 79 -4 123 -12 131 -7 7 -29 12 -50 12 l-39 0
-44 -91 -44 -91 -44 88 c-41 85 -44 89 -79 92 -23 2 -41 -3 -52 -13z"/>
<path d="M5384 1896 c-34 -15 -44 -33 -44 -75 0 -51 21 -65 102 -71 65 -4 73
-7 73 -25 0 -18 -8 -20 -85 -25 -83 -5 -85 -6 -85 -30 0 -24 2 -25 75 -28 96
-4 133 3 160 31 l22 23 28 -28 c25 -25 36 -28 92 -28 41 0 71 -5 84 -15 28
-21 41 -18 13 4 -17 13 -45 20 -96 23 -47 2 -78 9 -88 19 -9 9 -17 43 -21 84
-7 77 -14 99 -14 41 l0 -37 -26 20 c-19 15 -41 21 -75 21 -56 0 -79 7 -79 25
0 16 77 30 113 21 55 -13 93 29 48 54 -28 14 -160 12 -197 -4z m193 -4 c27
-17 -6 -31 -82 -34 l-80 -3 0 -30 c0 -30 0 -30 65 -33 78 -4 100 -19 100 -73
0 -33 -5 -41 -30 -54 -42 -22 -195 -18 -195 5 0 12 18 16 85 20 l85 5 0 30 0
30 -71 5 c-82 6 -104 20 -104 65 0 31 19 56 50 68 23 8 163 8 177 -1z"/>
<path d="M5660 1903 c-25 -9 -50 -35 -50 -52 0 -10 7 -6 18 12 18 29 25 30
131 30 47 -1 70 -6 90 -21 25 -19 26 -23 22 -103 -2 -46 -8 -90 -14 -97 -7
-10 -4 -17 12 -29 18 -12 20 -17 10 -24 -11 -7 -10 -9 4 -9 21 0 22 14 2 34
-13 13 -11 46 3 46 3 0 17 -10 30 -22 22 -22 32 -23 164 -22 143 1 172 9 144
37 -12 12 -41 16 -127 16 -61 1 -115 4 -120 7 -5 3 -9 44 -9 92 0 48 -4 93 -9
100 -14 23 -64 11 -72 -18 -4 -14 -7 -19 -8 -13 -2 25 -59 43 -133 42 -40 0
-80 -3 -88 -6z m300 -108 l5 -100 85 -5 c67 -4 85 -8 85 -20 0 -26 -164 -26
-205 0 -9 6 -17 33 -21 77 -3 37 -9 77 -13 88 -7 17 -6 17 4 5 10 -13 11 -12
7 6 -6 28 11 56 31 52 14 -3 18 -20 22 -103z"/>
<path d="M3970 1804 c-72 -39 -236 -74 -434 -93 -149 -15 -419 -13 -541 3 -59
8 -104 10 -110 5 -60 -57 416 -90 773 -54 160 16 250 39 326 81 44 25 74 59
62 72 -3 3 -6 0 -6 -6 0 -18 -88 -74 -96 -61 -4 7 -3 9 3 6 6 -4 31 13 56 38
26 25 43 45 39 44 -4 -1 -36 -17 -72 -35z"/>
<path d="M5073 1833 c-9 -3 -13 -29 -13 -78 0 -93 13 -105 112 -105 100 0 83
-19 -19 -22 -86 -3 -88 -3 -88 -28 l0 -25 100 0 c80 0 107 4 128 18 27 17 27
19 27 127 0 109 0 110 -25 116 -42 10 -54 -9 -48 -75 l6 -59 -54 -4 c-30 -2
-57 -3 -61 -1 -5 2 -8 31 -8 63 0 48 -4 61 -19 70 -11 5 -21 10 -23 9 -2 0 -9
-3 -15 -6z"/>
<path d="M2667 1534 c-4 -4 -7 -139 -7 -300 0 -182 -4 -303 -11 -321 -5 -15
-27 -45 -47 -66 l-36 -37 26 -26 c20 -21 32 -25 52 -20 42 10 113 85 125 133
7 27 10 144 9 340 l-3 298 -50 3 c-28 2 -54 0 -58 -4z m48 -47 c-3 -16 -10
-38 -15 -48 -6 -10 -10 -26 -9 -36 1 -13 3 -11 9 7 l8 25 1 -24 c2 -43 11 -16
15 43 3 51 18 88 30 75 7 -7 8 -579 1 -613 -13 -61 -57 -116 -110 -136 -20 -8
-27 -5 -40 13 -19 27 -19 39 -1 35 8 -2 16 2 17 7 1 6 12 23 25 38 27 32 25 3
26 407 0 129 2 238 4 242 2 3 13 4 24 1 16 -4 19 -11 15 -36z"/>
<path d="M2910 1371 c-53 -16 -55 -18 -55 -51 0 -33 2 -35 35 -34 19 1 58 5
87 9 69 10 103 -10 103 -59 l0 -33 -69 -5 c-91 -7 -138 -32 -169 -89 -74 -138
62 -255 213 -183 34 16 37 16 48 0 9 -12 24 -17 47 -14 l35 3 3 182 c3 218 -3
243 -70 273 -53 24 -132 24 -208 1z m248 -48 c6 -9 12 -24 12 -32 -1 -13 -4
-12 -16 4 -8 11 -20 20 -27 20 -7 1 -11 6 -9 13 1 7 -7 12 -18 12 -11 0 -20 6
-20 13 0 9 -2 9 -9 -1 -11 -19 -15 -19 -34 -4 -13 11 -15 10 -13 -5 2 -10 10
-17 20 -15 9 2 16 -2 16 -8 0 -5 7 -10 15 -10 8 0 15 -4 15 -10 0 -5 9 -10 20
-10 11 0 20 6 20 13 0 8 3 7 9 -3 6 -8 7 -18 5 -22 -3 -5 -2 -8 3 -7 32 5 34
-2 30 -101 -2 -55 -7 -103 -11 -107 -3 -3 -7 2 -7 13 -1 10 -5 1 -9 -21 -5
-28 -4 -46 6 -60 13 -19 14 -18 14 8 0 16 -4 26 -10 22 -6 -3 -7 1 -3 10 10
28 23 -4 23 -57 0 -36 -4 -48 -15 -49 -42 -4 -50 -2 -47 10 1 7 0 22 -4 34 -6
18 -8 18 -18 6 -23 -30 -67 -50 -105 -47 -23 1 -37 6 -35 13 3 6 -5 11 -16 12
-17 2 -18 -1 -10 -17 9 -18 8 -18 -20 -8 -43 14 -61 44 -48 74 6 13 15 21 19
18 5 -3 9 0 9 5 0 18 -17 12 -31 -10 -13 -19 -14 -17 -16 23 -3 45 28 111 41
89 4 -6 0 -14 -8 -17 -9 -3 -16 -14 -16 -23 0 -13 2 -13 9 -2 6 9 11 10 15 2
4 -6 5 -15 1 -20 -3 -5 -1 -12 5 -16 8 -5 15 30 11 58 0 4 4 7 9 7 14 0 26
-33 14 -37 -15 -5 -5 -66 13 -80 8 -6 12 -17 7 -24 -4 -7 -3 -10 4 -5 6 3 16
-3 22 -14 14 -27 28 -25 40 5 6 15 17 25 29 25 11 0 23 5 26 11 4 6 13 8 21 5
9 -3 11 0 7 12 -6 15 -4 15 9 4 17 -14 19 -7 5 28 -14 39 -14 48 4 71 21 27
24 39 8 39 -5 0 -7 -4 -4 -10 11 -18 -111 -12 -129 6 -9 8 -16 11 -16 5 0 -5
5 -13 11 -16 6 -4 -1 -13 -16 -21 -35 -18 -40 -18 -25 1 9 10 9 15 1 15 -6 0
-11 -4 -11 -9 0 -5 -9 -7 -20 -4 -11 3 -20 9 -20 14 0 28 169 50 198 27 10 -8
13 -9 9 -1 -4 6 -2 13 5 15 6 2 13 19 14 37 1 18 0 30 -3 27 -4 -3 -15 8 -25
24 -22 37 -58 52 -107 46 -20 -3 -28 -3 -18 0 27 9 20 19 -14 20 -19 1 -26 -2
-18 -7 8 -4 10 -11 6 -15 -4 -4 -15 -1 -23 8 -15 15 -15 17 5 27 12 7 27 9 33
5 7 -5 8 -3 3 6 -6 10 -2 12 16 8 13 -3 35 -2 49 2 29 8 118 -22 138 -47z
m-66 -206 c-6 -7 -12 -30 -14 -51 -3 -34 -8 -42 -42 -59 -35 -18 -41 -19 -65
-6 -19 11 -27 24 -29 50 -4 47 14 60 91 69 34 4 64 8 66 9 2 0 -1 -5 -7 -12z"/>
<path d="M3750 1375 c-66 -19 -72 -25 -68 -61 3 -32 14 -34 128 -19 67 8 88
-4 97 -58 l6 -37 -53 0 c-76 0 -123 -17 -166 -61 -30 -30 -38 -47 -42 -87 -6
-65 15 -104 71 -131 56 -27 90 -26 153 3 49 23 51 23 62 5 14 -22 61 -26 80
-7 8 8 12 63 12 182 0 193 -9 225 -68 259 -44 26 -142 31 -212 12z m170 -16
c0 -5 -9 -9 -19 -9 -11 0 -23 -4 -26 -10 -4 -6 6 -7 25 -4 19 4 30 2 30 -5 0
-6 -5 -10 -11 -8 -6 1 -14 -4 -17 -12 -3 -10 0 -12 13 -7 11 4 22 1 27 -6 5
-8 6 3 2 26 -5 28 -4 37 5 32 6 -4 11 -13 10 -19 -3 -26 1 -47 10 -47 5 0 7
10 5 23 -3 14 2 9 11 -11 16 -34 8 -62 -18 -62 -5 0 -3 8 6 18 15 16 15 18 -3
18 -11 0 -20 -7 -20 -16 -1 -11 -5 -10 -18 6 -10 12 -29 27 -42 34 -24 13
-116 15 -154 4 -13 -5 -17 -2 -12 7 4 8 0 5 -10 -6 -15 -18 -16 -18 -10 -2 3
10 6 23 6 28 0 20 66 38 138 37 39 0 72 -4 72 -9z m90 -294 l0 -135 -35 0
c-26 0 -33 3 -29 15 4 8 10 15 16 15 5 0 7 -4 4 -8 -2 -4 4 -8 13 -8 15 0 17
3 7 19 -8 14 -21 17 -55 15 -53 -4 -65 14 -21 32 20 8 30 20 31 34 0 20 1 20
8 1 6 -16 9 -14 15 15 7 31 9 32 16 15 5 -11 9 -15 10 -10 6 31 4 51 -5 58 -6
4 -4 11 5 17 8 5 11 10 5 10 -16 -1 -45 -26 -38 -33 3 -4 -1 -7 -10 -7 -10 0
-14 5 -11 15 5 12 -5 15 -60 15 -58 0 -65 2 -60 18 4 9 -4 2 -15 -17 -12 -18
-25 -31 -28 -27 -3 3 0 12 7 21 7 9 11 18 8 21 -10 9 -37 -44 -44 -83 -4 -29
-2 -42 10 -52 24 -20 19 -34 -6 -17 -12 9 -29 16 -38 16 -8 0 0 -8 18 -17 20
-9 31 -21 28 -29 -3 -7 0 -16 6 -20 7 -4 5 -10 -6 -16 -17 -10 -44 1 -65 25
-30 36 -20 169 11 151 7 -4 10 -4 6 1 -4 4 -3 14 3 22 10 11 14 10 24 -3 11
-16 12 -16 18 0 4 10 3 15 -3 11 -6 -3 -10 -3 -10 2 0 4 11 13 25 20 18 8 25
8 25 0 0 -7 4 -7 12 1 16 16 60 15 77 0 8 -8 11 -8 8 -2 -4 7 2 14 14 17 15 4
23 0 26 -13 5 -19 31 -35 41 -25 3 3 0 11 -6 17 -17 17 -15 28 4 28 8 0 13 -4
9 -9 -3 -5 0 -13 6 -16 6 -4 13 2 16 14 3 12 7 21 9 21 2 0 4 -61 4 -135z"/>
<path d="M3236 1371 c-7 -11 12 -89 58 -231 19 -58 40 -127 47 -153 16 -65 31
-77 89 -77 46 0 51 3 75 38 38 55 140 388 128 418 -8 20 -109 19 -117 -1 -3
-8 -12 -55 -21 -104 -18 -107 -51 -212 -59 -191 -3 8 -14 49 -25 90 -11 41
-31 107 -43 145 l-23 70 -52 3 c-28 2 -54 -1 -57 -7z m62 -29 c10 -14 12 -14
12 -1 0 9 7 16 15 16 9 0 15 -10 15 -23 0 -13 5 -26 11 -30 6 -3 9 -17 6 -30
-2 -13 -1 -24 3 -24 12 0 63 -171 62 -208 -1 -27 2 -33 16 -30 9 2 17 8 18 13
1 16 16 69 23 80 3 5 6 17 6 25 5 54 5 55 15 40 5 -8 12 -11 16 -7 4 3 2 12
-3 19 -13 17 6 138 22 138 19 0 25 -12 15 -31 -7 -12 -7 -20 0 -24 5 -3 10 -1
10 4 0 6 7 11 15 11 21 0 19 5 -15 40 -36 37 -36 38 -7 36 12 -1 29 1 38 5 10
5 16 3 16 -7 0 -7 -6 -14 -14 -14 -7 0 -13 -4 -13 -10 0 -5 5 -10 10 -10 14 0
12 -48 -3 -92 -17 -49 -23 -54 -41 -35 -8 8 -12 17 -9 21 4 3 1 6 -5 6 -17 0
-15 -15 3 -30 8 -7 12 -16 9 -21 -3 -5 2 -6 10 -3 12 5 14 0 10 -22 -3 -16 -9
-33 -15 -40 -5 -6 -6 -14 -2 -17 3 -4 1 -7 -6 -7 -7 0 -9 -4 -6 -10 3 -5 2
-10 -4 -10 -5 0 -8 -8 -7 -17 2 -10 -6 -39 -17 -65 l-20 -48 -58 0 c-52 0 -59
2 -59 20 0 23 10 26 28 8 14 -14 16 0 3 21 -5 8 -16 11 -24 8 -9 -3 -18 0 -21
8 -3 10 0 12 12 9 13 -5 12 -1 -4 13 -22 19 -58 109 -49 124 3 4 1 10 -4 14
-6 3 -13 27 -17 53 -3 26 -13 58 -21 70 -13 21 -13 26 1 41 9 10 16 21 16 26
0 5 -7 0 -16 -11 -13 -16 -15 -16 -10 -2 3 10 0 17 -6 15 -6 -1 -13 4 -15 12
-7 18 38 5 55 -17z"/>
<path d="M2552 429 c-30 -56 -28 -75 14 -142 39 -62 59 -80 25 -21 -20 33 -20
35 -2 29 14 -4 21 2 31 25 10 25 18 30 47 30 31 0 34 -2 27 -22 -3 -13 -10
-24 -15 -26 -5 -2 -4 -9 1 -15 14 -17 60 -87 60 -92 0 -2 -8 -6 -17 -8 -15 -4
-14 -5 3 -6 23 -1 64 62 64 98 0 24 -33 93 -61 130 -23 29 -25 19 -3 -14 16
-25 16 -25 -12 -26 -16 0 -41 -3 -56 -5 -16 -3 -28 -1 -28 4 0 5 -11 26 -25
46 -14 21 -23 42 -20 47 4 5 2 9 -3 9 -4 0 -18 -18 -30 -41z"/>
<path d="M2827 395 c-7 -74 3 -125 23 -125 11 0 14 7 24 53 5 20 12 27 31 27
21 0 25 -5 25 -29 0 -32 22 -56 45 -47 12 4 15 25 15 101 l0 96 -27 -3 c-23
-2 -29 -8 -31 -35 -3 -28 -7 -33 -29 -33 -16 0 -27 7 -30 20 -3 11 -12 20 -19
20 -8 0 -14 5 -14 11 0 6 7 9 15 5 8 -3 15 -1 15 4 0 6 -8 10 -19 10 -15 0
-19 -11 -24 -75z"/>
<path d="M3096 448 c-3 -13 -6 -48 -6 -78 0 -93 5 -100 61 -100 70 0 88 21 87
101 -1 79 -18 99 -87 99 -42 0 -49 -3 -55 -22z"/>
<path d="M3257 464 c-12 -13 -8 -169 5 -182 16 -16 104 -16 110 1 9 22 -3 37
-28 37 -14 0 -24 6 -24 14 0 8 7 12 18 10 42 -10 56 39 15 52 -45 15 -47 18
-13 23 26 5 35 11 35 26 0 17 -8 20 -55 23 -31 2 -59 0 -63 -4z"/>
<path d="M3397 453 c-7 -30 -9 -142 -2 -163 8 -27 45 -26 52 0 l6 21 19 -21
c10 -11 25 -20 34 -20 25 0 28 30 5 54 l-21 23 20 18 c27 24 26 70 -2 89 -32
23 -105 21 -111 -1z"/>
</g>
</svg>
