<?xml version="1.0" standalone="no"?>
<!DOCTYPE svg PUBLIC "-//W3C//DTD SVG 20010904//EN"
 "http://www.w3.org/TR/2001/REC-SVG-20010904/DTD/svg10.dtd">
<svg version="1.0" xmlns="http://www.w3.org/2000/svg"
 width="649.000000pt" height="288.000000pt" viewBox="0 0 649.000000 288.000000"
 preserveAspectRatio="xMidYMid meet">
<metadata>
Created by potrace 1.16, written by Peter Selinger 2001-2019
</metadata>
<g transform="translate(0.000000,288.000000) scale(0.100000,-0.100000)"
fill="#000000" stroke="none">
<path d="M882 739 c-93 -18 -186 -91 -233 -181 -26 -51 -38 -137 -27 -204 30
-192 220 -318 407 -270 168 43 263 163 263 332 0 153 -100 278 -257 319 -65
16 -88 17 -153 4z m86 -89 c7 -12 10 -25 7 -29 -2 -5 3 -8 12 -7 26 2 74 -100
80 -171 4 -45 1 -73 -13 -109 -19 -53 -60 -114 -76 -114 -6 0 -4 8 3 18 13 15
12 16 -3 4 -9 -8 -15 -19 -13 -25 2 -7 0 -28 -4 -47 -8 -32 -9 -32 -10 -8 -1
17 -17 46 -45 77 -61 68 -80 123 -74 210 6 77 31 137 81 189 36 38 38 38 55
12z"/>
<path d="M1627 740 c-72 -13 -131 -46 -186 -106 -69 -75 -94 -146 -89 -244 8
-128 71 -226 181 -280 88 -43 164 -49 257 -21 62 19 81 31 135 84 47 47 68 77
85 122 57 155 -16 336 -167 413 -32 17 -144 45 -162 41 -3 -1 -27 -5 -54 -9z
m10 -243 c15 -14 27 -40 30 -65 l6 -42 -92 0 c-91 0 -92 0 -86 -22 17 -58 79
-75 122 -32 30 30 60 26 43 -5 -25 -47 -97 -66 -154 -40 -50 23 -72 119 -41
179 32 63 123 77 172 27z m130 -7 c15 -22 31 -40 35 -40 4 0 19 18 35 40 18
26 36 40 51 40 12 0 22 -2 22 -5 0 -3 -18 -30 -41 -60 l-41 -54 39 -53 c58
-79 58 -78 26 -78 -22 0 -34 9 -56 45 -16 25 -32 45 -35 45 -4 0 -20 -20 -35
-45 -21 -33 -35 -45 -53 -45 -13 0 -24 2 -24 5 0 3 18 30 40 60 22 30 40 58
40 63 0 5 -18 33 -40 62 -22 29 -40 55 -40 57 0 2 11 3 24 3 17 0 33 -12 53
-40z"/>
<path d="M2339 737 c-181 -51 -290 -231 -245 -405 26 -104 97 -191 191 -234
75 -34 199 -32 278 4 80 37 159 119 182 187 73 222 -67 433 -301 455 -35 3
-78 0 -105 -7z m38 -123 l51 -26 29 19 c38 26 62 35 83 28 26 -8 44 -59 37
-103 -6 -35 -5 -38 32 -53 22 -9 47 -28 56 -43 16 -25 16 -27 0 -52 -9 -15
-34 -34 -55 -42 -35 -16 -37 -18 -33 -57 3 -22 0 -52 -6 -67 -9 -23 -17 -28
-44 -28 -19 0 -49 10 -69 23 l-34 24 -34 -24 c-43 -29 -95 -31 -110 -4 -5 11
-10 41 -10 68 0 47 -1 49 -42 68 -28 14 -46 31 -53 48 -12 36 1 56 53 82 41
20 41 20 42 77 0 47 4 60 22 72 28 20 23 21 85 -10z"/>
<path d="M2352 450 l-23 -41 23 -40 c22 -39 23 -40 71 -37 45 3 51 6 71 41
l21 37 -21 38 c-20 34 -26 37 -70 40 -48 2 -50 2 -72 -38z"/>
<path d="M3078 736 c-206 -59 -309 -273 -223 -463 33 -75 93 -134 173 -171 80
-38 193 -37 272 1 153 73 239 243 196 389 -31 108 -116 199 -216 233 -66 22
-148 26 -202 11z m199 -27 c72 -28 144 -94 179 -166 38 -77 38 -184 2 -263
-32 -68 -91 -130 -155 -161 -40 -20 -63 -24 -143 -24 -84 0 -101 4 -146 27
-249 130 -222 495 44 593 57 21 152 18 219 -6z"/>
</g>
</svg>
