<?xml version="1.0" standalone="no"?>
<!DOCTYPE svg PUBLIC "-//W3C//DTD SVG 20010904//EN"
 "http://www.w3.org/TR/2001/REC-SVG-20010904/DTD/svg10.dtd">
<svg version="1.0" xmlns="http://www.w3.org/2000/svg"
 width="226.000000pt" height="111.000000pt" viewBox="0 0 226.000000 111.000000"
 preserveAspectRatio="xMidYMid meet">
<metadata>
Created by potrace 1.16, written by Peter Selinger 2001-2019
</metadata>
<g transform="translate(0.000000,111.000000) scale(0.100000,-0.100000)"
fill="#000000" stroke="none">
<path d="M1595 1048 c-46 -16 -75 -48 -81 -90 -6 -32 -11 -38 -30 -38 -22 0
-24 -4 -24 -45 0 -41 2 -45 25 -45 l25 0 0 -125 0 -125 50 0 50 0 0 125 0 125
30 0 c32 0 32 -2 14 -72 -3 -9 0 -36 6 -60 13 -47 79 -118 110 -118 10 0 22
-4 25 -10 18 -29 125 3 172 51 38 38 42 59 13 66 -29 8 -25 23 6 23 26 0 26 1
22 59 -3 45 -11 68 -32 96 -35 45 -64 57 -143 57 -64 1 -99 -14 -135 -54 -16
-19 -17 -18 -20 14 -3 28 -7 34 -31 36 -35 4 -33 33 3 42 47 11 34 103 -14 99
-6 0 -24 -5 -41 -11z"/>
<path d="M2020 796 l0 -216 50 0 50 0 -2 213 -3 212 -47 3 -48 3 0 -215z"/>
<path d="M947 924 c-3 -4 -43 -6 -87 -6 l-80 2 0 -171 0 -170 53 3 52 3 3 112
c2 106 4 114 26 128 34 23 72 10 85 -27 6 -17 11 -73 11 -125 l0 -94 48 3 47
3 5 65 5 65 13 -37 c14 -40 75 -98 104 -98 9 0 20 -4 23 -10 8 -13 82 -13 90
0 3 6 14 10 23 10 28 0 82 56 82 84 0 16 -6 26 -15 26 -8 0 -15 5 -15 10 0 6
11 10 25 10 24 0 25 3 25 55 0 30 -4 55 -10 55 -5 0 -10 8 -10 18 0 32 -56 72
-113 81 -103 17 -172 -14 -207 -93 -11 -25 -19 -34 -19 -22 -1 28 -48 104 -69
110 -40 12 -88 17 -95 10z"/>
<path d="M519 790 c-9 -10 -19 -30 -21 -46 -16 -88 -41 -181 -53 -201 -9 -13
-28 -25 -43 -28 -15 -3 -43 -11 -62 -16 -19 -6 -60 -11 -91 -12 -31 -1 -55 -5
-53 -9 2 -3 -3 -14 -12 -23 -16 -15 -13 -20 40 -72 63 -62 53 -60 221 -33 118
18 156 46 168 120 3 19 13 78 22 130 l16 94 -58 57 c-55 53 -59 55 -74 39z"/>
<path d="M787 484 c-4 -4 -7 -40 -7 -81 l0 -73 66 0 c57 0 65 2 62 18 -2 11
-16 19 -43 23 -38 6 -38 6 -7 8 27 1 32 5 32 26 0 21 -5 25 -30 25 -43 0 -37
18 8 22 25 2 37 8 37 18 0 11 -14 16 -55 18 -31 2 -59 0 -63 -4z"/>
<path d="M930 410 l0 -80 59 0 c54 0 61 3 80 29 28 39 26 63 -8 100 -25 27
-36 31 -80 31 l-51 0 0 -80z"/>
<path d="M1110 424 c0 -78 12 -94 69 -94 54 0 73 28 69 101 -2 42 -7 55 -20
57 -15 3 -18 -4 -18 -41 0 -30 -6 -49 -18 -60 -28 -25 -32 -21 -32 27 0 57 -8
76 -31 76 -17 0 -19 -8 -19 -66z"/>
<path d="M1295 465 c-32 -32 -34 -86 -3 -114 18 -17 34 -21 96 -19 52 1 75 5
79 15 7 18 48 17 63 -2 14 -17 50 -20 50 -4 0 5 -14 41 -32 80 -40 89 -59 91
-94 11 l-26 -57 -47 1 c-25 1 -49 3 -53 3 -14 2 -8 48 7 61 12 10 19 10 27 2
17 -17 48 -15 55 3 8 22 -25 44 -65 45 -22 0 -41 -8 -57 -25z"/>
<path d="M1816 469 c-21 -16 -26 -29 -26 -63 0 -54 24 -76 84 -76 52 0 78 23
79 74 2 74 -78 112 -137 65z"/>
<path d="M1974 476 c-3 -7 -4 -42 -2 -77 3 -61 4 -64 28 -64 19 0 26 6 30 28
l5 27 20 -30 c15 -23 27 -30 45 -28 23 3 25 8 28 57 4 78 -4 103 -31 99 -16
-2 -24 -12 -28 -38 -4 -19 -7 -30 -8 -24 0 6 -11 23 -24 37 -24 29 -54 35 -63
13z"/>
</g>
</svg>
