<?xml version="1.0" standalone="no"?>
<!DOCTYPE svg PUBLIC "-//W3C//DTD SVG 20010904//EN"
 "http://www.w3.org/TR/2001/REC-SVG-20010904/DTD/svg10.dtd">
<svg version="1.0" xmlns="http://www.w3.org/2000/svg"
 width="704.000000pt" height="354.000000pt" viewBox="0 0 704.000000 354.000000"
 preserveAspectRatio="xMidYMid meet">
<metadata>
Created by potrace 1.16, written by Peter Selinger 2001-2019
</metadata>
<g transform="translate(0.000000,354.000000) scale(0.100000,-0.100000)"
fill="#000000" stroke="none">
<path d="M3256 3494 c-7 -19 17 -62 40 -71 23 -9 16 -29 -22 -58 -30 -23 -34
-31 -29 -55 8 -38 -8 -67 -44 -75 -36 -8 -65 -39 -57 -60 4 -11 -8 -29 -34
-54 -36 -34 -40 -43 -40 -87 0 -27 6 -58 14 -69 15 -23 35 -88 71 -238 14 -60
36 -130 49 -155 13 -26 27 -58 31 -72 9 -30 130 -241 154 -267 9 -10 32 -38
51 -63 58 -76 111 -124 208 -189 195 -131 339 -172 667 -188 119 -6 306 10
398 33 32 9 75 15 95 13 20 -1 44 1 52 4 15 6 138 37 146 37 2 0 4 16 4 35 l0
35 -60 0 c-32 0 -70 5 -83 11 -19 9 -30 8 -49 -5 -20 -13 -31 -14 -52 -6 -15
5 -47 10 -72 10 -50 0 -53 8 -23 50 24 32 20 60 -10 60 -17 0 -106 -67 -122
-92 -9 -13 -189 38 -262 74 -115 57 -203 125 -279 215 -40 49 -76 90 -79 93
-19 16 -92 187 -108 255 -26 107 -56 458 -41 485 13 24 38 25 87 5 39 -16 89
-20 97 -7 11 18 -26 50 -98 85 -41 21 -81 37 -88 37 -7 0 -33 11 -57 25 -23
14 -49 25 -56 25 -8 0 -16 9 -20 20 -4 13 -21 23 -48 30 -84 22 -92 26 -96 51
-4 31 -19 40 -57 33 -18 -3 -41 -1 -52 5 -16 9 -19 18 -15 56 l6 45 -56 0
c-42 0 -56 -4 -61 -16z m531 -310 c16 -42 -77 -83 -246 -109 -57 -9 -112 -20
-122 -26 -12 -6 -19 -6 -19 0 0 14 -30 41 -46 41 -24 0 -15 -26 14 -40 l27
-12 -34 -17 c-33 -15 -33 -15 -56 13 -13 16 -21 35 -18 43 3 7 0 13 -6 13 -6
0 -11 4 -11 8 0 4 30 15 68 25 37 10 78 20 91 24 17 4 22 3 17 -6 -5 -8 5 -10
39 -7 49 4 74 16 34 16 -23 1 -23 1 -4 12 11 7 39 15 63 18 36 6 42 4 42 -12
0 -11 7 -18 20 -18 13 0 20 7 20 20 0 11 6 20 14 20 9 0 12 -7 9 -20 -4 -16
-2 -19 11 -14 9 3 16 15 16 25 0 15 7 19 35 19 23 0 38 -6 42 -16z m-53 -130
c3 -9 6 -32 6 -52 -1 -35 -1 -36 -16 -17 -15 20 -15 20 -30 1 -16 -23 -19 -72
-3 -81 5 -4 19 1 29 10 18 17 20 17 26 1 4 -9 4 -39 2 -67 -3 -27 -1 -52 3
-55 5 -3 9 -16 9 -30 0 -18 -5 -24 -21 -24 -21 0 -22 -24 -1 -26 35 -4 36 -5
20 -15 -10 -5 -18 -19 -18 -31 0 -16 3 -18 14 -9 17 14 21 8 30 -39 9 -52 13
-72 22 -104 5 -21 4 -27 -5 -22 -7 5 -11 0 -11 -13 0 -12 5 -21 10 -21 6 0 10
5 10 11 0 5 5 7 10 4 6 -4 4 -12 -6 -22 -14 -14 -13 -18 16 -44 17 -16 34 -29
38 -29 4 0 23 -22 42 -48 19 -26 52 -68 72 -93 21 -25 38 -52 38 -61 0 -30 97
-101 169 -123 13 -4 43 -22 67 -40 24 -18 58 -36 76 -40 18 -4 42 -14 53 -21
11 -8 32 -14 47 -14 15 0 30 -4 33 -10 15 -24 -107 -3 -184 32 -31 14 -56 18
-80 14 -20 -4 -45 -6 -56 -7 -10 0 -25 -5 -32 -11 -10 -8 -18 -4 -32 13 -10
13 -29 24 -42 24 -20 0 -25 6 -27 33 -3 25 -8 32 -25 32 -18 0 -19 2 -7 10 25
15 -51 82 -148 132 -64 32 -81 44 -64 46 42 6 13 82 -32 82 -8 0 -24 9 -37 19
-23 19 -24 20 -5 34 17 13 18 18 7 45 -7 17 -20 37 -28 44 -14 11 -15 8 -9
-22 l7 -35 -15 33 c-18 38 -40 49 -61 32 -11 -9 -15 -9 -15 -1 0 7 -7 11 -16
9 -10 -2 -20 10 -29 36 -8 21 -20 43 -27 47 -10 6 -9 11 6 22 15 11 17 17 7
35 -17 32 -13 49 6 22 9 -14 17 -26 19 -28 6 -8 44 20 44 32 0 23 -38 63 -65
69 -20 3 -25 1 -20 -10 3 -9 -8 -26 -27 -44 l-33 -28 -3 35 c-2 26 -7 34 -18
30 -8 -3 -14 -4 -14 -2 0 3 -3 11 -6 19 -4 10 1 15 13 14 12 -1 19 6 21 21 2
12 8 22 13 22 6 0 7 5 3 12 -5 8 2 9 24 5 37 -8 41 4 10 27 -23 16 -23 16 -1
6 12 -5 24 -10 26 -10 6 0 -1 59 -8 71 -4 5 1 9 10 9 9 0 13 5 10 10 -5 8 -11
7 -20 0 -8 -7 -19 -9 -25 -5 -16 10 -12 -37 5 -49 13 -9 10 -11 -17 -11 -26 0
-33 -4 -32 -18 2 -13 -3 -16 -18 -11 -14 4 -18 2 -14 -5 4 -6 2 -11 -4 -11 -6
0 -8 -4 -5 -10 7 -11 4 -12 -38 -14 -15 -1 -33 4 -38 10 -14 17 17 64 43 64
11 0 27 7 35 16 15 14 15 18 0 44 -24 41 -21 50 17 50 18 0 44 8 57 19 13 10
34 21 47 25 12 4 22 11 22 16 0 5 14 7 30 4 23 -5 30 -3 30 10 0 12 10 16 38
16 20 0 44 5 52 10 22 14 37 12 44 -6z"/>
<path d="M1465 3494 c-11 -3 -27 -8 -35 -11 -8 -3 -28 -8 -44 -10 -55 -8 -132
-43 -162 -74 l-29 -30 0 -137 0 -137 213 -3 213 -2 -4 -28 -4 -27 -339 -5
c-335 -5 -404 -12 -404 -42 0 -5 -4 -7 -8 -4 -5 3 -20 -7 -34 -22 -29 -32 -71
-92 -65 -92 3 0 -2 -21 -10 -47 -22 -69 -26 -105 -26 -233 0 -105 14 -210 33
-235 4 -5 10 -22 13 -36 9 -36 85 -119 124 -135 20 -9 70 -14 131 -14 l98 0 1
134 c1 121 3 140 26 189 27 60 55 90 108 117 32 17 65 19 293 21 354 3 419 19
469 119 21 42 22 59 25 300 2 140 1 264 -2 275 -9 37 -79 104 -126 121 -109
38 -150 45 -290 49 -80 2 -154 2 -165 -1z m-35 -166 c41 -49 10 -118 -54 -118
-46 0 -76 29 -76 73 0 71 85 100 130 45z"/>
<path d="M4860 2998 c-59 -31 -67 -44 -35 -62 11 -6 23 -15 27 -21 4 -5 8
-114 8 -241 l0 -230 -25 -22 c-14 -13 -23 -27 -20 -32 8 -13 192 -13 199 -1
10 16 -5 41 -24 41 -39 0 -42 20 -45 302 -2 150 -4 279 -4 286 -1 17 -18 13
-81 -20z"/>
<path d="M5915 3019 c-4 -6 -27 -20 -51 -31 -39 -17 -61 -48 -34 -48 5 0 18
-10 30 -22 19 -21 20 -34 20 -250 l0 -228 -25 -16 c-14 -9 -25 -23 -25 -30 0
-11 22 -14 106 -14 93 0 105 2 102 17 -2 9 -19 22 -38 28 -31 10 -35 16 -38
51 -2 29 2 45 16 57 19 17 21 16 70 -50 75 -102 79 -105 153 -101 56 3 64 5
64 23 0 15 -8 21 -29 23 -19 2 -47 23 -85 61 -62 64 -87 102 -78 125 9 22 107
76 140 76 17 0 27 5 27 14 0 22 -7 24 -110 27 -82 3 -95 1 -98 -14 -2 -11 6
-19 24 -23 l26 -7 -28 -26 c-16 -15 -42 -37 -59 -50 l-30 -23 -5 218 c-4 193
-7 219 -22 222 -9 2 -19 -2 -23 -9z"/>
<path d="M4330 2957 c0 -9 11 -23 25 -29 l25 -11 0 -239 0 -238 -25 -12 c-14
-6 -25 -20 -25 -30 0 -17 8 -18 112 -16 97 3 113 5 116 20 2 12 -5 19 -25 23
-57 12 -58 15 -61 129 l-3 106 40 0 c55 0 90 -15 101 -45 6 -15 17 -25 29 -25
18 0 20 9 23 88 3 83 -3 106 -27 99 -5 -2 -14 -18 -19 -36 l-9 -32 -66 3 -66
3 -3 94 c-4 120 -1 124 96 119 78 -4 81 -5 124 -69 23 -34 36 -16 39 56 l3 60
-202 0 c-187 0 -202 -1 -202 -18z"/>
<path d="M5200 2734 c-105 -47 -126 -68 -100 -99 20 -24 46 -17 79 20 50 57
95 41 89 -32 -3 -36 -5 -38 -53 -49 -57 -12 -90 -29 -122 -62 -28 -28 -29 -57
-3 -99 18 -31 23 -33 75 -33 31 0 69 7 85 15 25 13 30 13 44 0 20 -21 65 -19
104 5 41 25 37 44 -11 48 l-37 3 0 124 c0 133 -4 146 -57 166 -33 12 -52 11
-93 -7z"/>
<path d="M5595 2744 c-47 -12 -87 -37 -96 -60 -25 -67 4 -111 105 -164 56 -30
66 -39 66 -61 0 -21 -6 -28 -26 -32 -41 -8 -97 10 -119 37 -12 15 -26 26 -33
26 -16 0 -16 -82 0 -98 8 -8 46 -12 106 -12 90 0 95 1 123 29 23 24 29 38 29
75 0 39 -4 48 -37 75 -21 17 -41 31 -46 31 -15 0 -96 40 -102 50 -3 6 -3 19 0
30 5 16 15 20 48 20 32 0 48 -6 73 -31 41 -40 66 -34 58 13 -4 18 -14 41 -23
50 -17 18 -90 31 -126 22z"/>
<path d="M1750 1450 l0 -100 85 0 85 0 0 35 c0 35 0 35 -46 35 -44 0 -45 1
-42 28 3 24 7 27 46 30 41 3 42 4 42 38 l0 34 -85 0 -85 0 0 -100z"/>
<path d="M1940 1445 l0 -106 88 3 87 3 1 103 1 102 -88 0 -89 0 0 -105z"/>
<path d="M2140 1445 l0 -106 83 3 82 3 2 103 1 102 -84 0 -84 0 0 -105z"/>
<path d="M225 1492 c-3 -3 -5 -18 -5 -34 0 -26 -3 -29 -27 -26 -22 2 -29 9
-31 31 -3 24 -8 27 -38 27 l-34 0 0 -95 0 -95 34 0 c32 0 35 3 38 33 2 27 8
33 31 35 25 3 27 1 27 -32 0 -33 2 -36 30 -36 l30 0 0 94 c0 92 -1 94 -25 98
-13 3 -27 3 -30 0z"/>
<path d="M510 1490 c-8 -5 -10 -38 -8 -96 l3 -89 38 -3 37 -3 0 43 1 43 16
-29 16 -30 23 30 24 29 0 -43 c0 -43 0 -43 33 -40 l32 3 0 94 0 94 -28 3 c-20
2 -36 -5 -56 -26 l-28 -30 -11 25 c-6 14 -17 25 -24 26 -7 0 -23 2 -35 3 -12
1 -27 0 -33 -4z"/>
<path d="M302 1458 c2 -28 8 -34 31 -36 26 -3 27 -5 27 -63 l0 -59 35 0 35 0
0 59 c0 58 1 60 28 63 22 2 28 8 30 36 l3 32 -96 0 -96 0 3 -32z"/>
<path d="M750 1395 l0 -96 83 3 c78 3 82 4 85 27 5 32 -12 46 -56 46 l-37 0
-3 58 -3 57 -34 0 -35 0 0 -95z"/>
<path d="M3518 1394 l-3 -58 -35 -1 c-32 0 -35 -3 -38 -32 l-3 -33 71 0 71 0
-3 88 c-3 86 -3 87 -30 90 -26 3 -27 2 -30 -54z"/>
<path d="M3607 1444 c-16 -16 -5 -40 35 -81 l42 -43 -42 0 c-38 0 -42 -2 -42
-25 0 -25 1 -25 84 -25 102 0 112 12 63 71 -17 21 -36 39 -42 40 -5 1 6 4 25
8 29 5 35 10 35 31 0 24 -2 25 -75 28 -42 1 -79 0 -83 -4z"/>
<path d="M4614 1349 c-41 -12 -101 -79 -109 -121 -3 -18 -5 -240 -3 -494 l3
-460 24 -35 c49 -72 27 -69 574 -69 470 0 493 1 524 20 64 39 63 28 63 572 0
471 -1 494 -20 525 -43 70 -21 68 -550 70 -270 1 -489 -2 -506 -8z m679 -248
c60 -19 98 -60 106 -113 12 -78 3 -116 -40 -158 l-39 -38 27 -18 c16 -10 42
-30 58 -46 29 -27 30 -31 30 -118 l0 -91 -42 -39 c-77 -74 -107 -81 -339 -78
l-203 3 -4 352 c-2 194 -1 355 2 359 11 11 405 -2 444 -15z"/>
<path d="M5000 915 l0 -85 95 0 c106 0 148 14 159 52 11 42 6 60 -25 89 -30
28 -35 29 -130 29 l-99 0 0 -85z"/>
<path d="M5000 620 l0 -100 103 0 c125 0 166 16 180 70 6 22 5 48 -2 71 -15
49 -45 59 -177 59 l-104 0 0 -100z"/>
<path d="M1561 1252 l-54 -3 6 -82 c4 -45 11 -127 17 -182 5 -55 12 -143 15
-195 3 -52 10 -120 15 -150 6 -30 17 -138 25 -240 9 -102 18 -193 21 -202 3
-11 43 -28 122 -53 64 -20 128 -40 142 -46 14 -5 58 -15 97 -24 68 -14 78 -13
150 5 80 19 344 97 348 102 6 7 27 196 50 458 14 157 27 290 29 297 3 6 8 76
12 155 3 78 8 146 11 151 2 4 -2 7 -9 8 -44 2 -953 3 -997 1z m795 -220 c7 -5
5 -63 -8 -197 -10 -104 -23 -248 -29 -320 -6 -72 -14 -136 -18 -144 -4 -8 -18
-15 -32 -17 -14 -1 -72 -17 -127 -34 l-101 -32 -117 36 c-64 20 -124 36 -134
36 -14 0 -19 16 -27 97 -6 54 -8 102 -3 106 4 5 31 7 61 5 l54 -3 5 -47 c3
-26 8 -50 12 -53 3 -3 36 -14 74 -25 68 -20 69 -20 138 0 38 11 74 24 79 29
10 10 27 150 20 164 -2 4 -107 7 -234 7 l-229 0 0 60 0 60 235 0 235 0 10 25
c9 23 5 103 -5 113 -2 2 -58 4 -124 3 -65 -1 -121 2 -124 6 -4 7 -111 9 -134
3 -18 -4 -98 2 -104 8 -4 4 -9 31 -12 59 l-6 53 307 3 c169 1 312 3 317 4 6 2
15 -1 21 -5z"/>
<path d="M18 1213 c-19 -5 -19 -33 7 -268 8 -71 19 -188 25 -260 6 -71 15
-166 20 -210 5 -44 12 -123 16 -176 l6 -97 41 -15 c23 -8 76 -24 117 -37 41
-12 104 -30 140 -41 90 -27 142 -26 240 5 47 14 124 37 172 51 48 15 94 33
102 40 9 9 16 47 20 102 3 49 13 156 21 238 58 568 63 654 44 666 -14 9 -938
11 -971 2z m813 -194 c20 -10 20 -10 0 -28 -14 -12 -21 -30 -21 -53 0 -20 -7
-41 -15 -48 -15 -12 -29 -13 -115 -9 -25 1 -54 -3 -66 -9 -21 -11 -104 -13
-104 -2 0 4 -42 6 -92 6 l-93 -1 2 -48 c3 -83 -15 -77 248 -77 193 0 235 -2
235 -14 0 -7 -6 -19 -14 -25 -10 -8 -16 -45 -20 -119 -4 -59 -9 -136 -12 -172
-5 -60 -4 -63 10 -45 18 23 21 39 6 30 -6 -4 -7 1 -3 11 4 11 8 13 11 6 2 -7
8 -10 13 -6 15 9 11 -3 -14 -39 -19 -28 -27 -33 -45 -26 -13 5 -22 4 -22 -1 0
-5 -7 -7 -16 -3 -8 3 -28 -4 -43 -15 -19 -13 -32 -17 -38 -11 -7 7 -25 5 -54
-5 -53 -19 -83 -20 -111 -5 -12 6 -51 18 -87 25 -127 27 -125 24 -136 152 l-6
72 59 0 59 0 9 -47 c9 -45 11 -48 59 -65 65 -23 107 -24 98 -2 -5 14 -3 15 15
5 24 -13 111 5 113 24 1 5 2 24 4 40 1 17 3 30 4 30 2 0 5 11 7 25 4 22 3 23
-9 7 -12 -18 -14 -17 -31 2 -11 12 -15 22 -10 22 5 1 -7 5 -26 9 -33 7 -32 7
15 9 32 0 45 -2 36 -8 -7 -5 -10 -14 -7 -20 8 -12 36 9 36 27 0 12 -193 22
-316 15 -69 -4 -103 -2 -108 5 -9 15 -36 244 -36 310 l0 52 158 2 c86 1 226 2
310 2 138 0 175 5 140 19 -7 3 -9 6 -5 6 5 1 17 -4 28 -10z"/>
<path d="M6905 1121 c-40 -37 -276 -66 -470 -58 -155 7 -205 15 -183 28 9 6 8
9 -8 9 -11 0 -25 -5 -31 -11 -13 -13 -105 -8 -184 11 -51 12 -58 12 -82 -6
-43 -31 -34 -49 31 -67 112 -32 160 -38 288 -39 103 -1 137 2 169 16 36 16 61
17 230 11 158 -6 200 -4 243 9 l53 15 -1 -127 c-2 -102 -5 -131 -18 -147 -17
-20 -17 -20 6 -1 21 18 22 26 22 168 l0 148 -31 19 c-20 12 -26 21 -17 24 7 3
8 6 3 6 -6 1 -15 -3 -20 -8z"/>
<path d="M6863 729 c-83 -29 -176 -40 -358 -41 -192 -2 -252 5 -258 30 -4 15
-5 15 -6 0 -1 -15 -10 -18 -53 -18 -51 1 -165 21 -184 32 -14 9 -78 -25 -82
-44 -6 -32 96 -60 283 -78 113 -10 202 -3 247 21 16 9 72 10 208 6 169 -6 236
-2 281 17 15 6 17 -7 17 -123 l1 -130 -34 -20 c-81 -48 -311 -78 -515 -67
-109 5 -227 22 -177 25 9 1 17 6 17 12 0 7 -10 5 -25 -5 -43 -28 -160 -13
-254 32 -48 24 -62 22 -40 -4 16 -19 49 -33 98 -39 20 -3 65 -11 101 -18 108
-20 634 -14 670 8 3 2 25 6 50 10 24 4 61 15 82 26 l38 20 -2 162 c-3 161 -3
161 -28 174 -14 7 -24 17 -22 23 1 5 1 9 0 9 -2 -1 -26 -10 -55 -20z"/>
</g>
</svg>
