<?xml version="1.0" standalone="no"?>
<!DOCTYPE svg PUBLIC "-//W3C//DTD SVG 20010904//EN"
 "http://www.w3.org/TR/2001/REC-SVG-20010904/DTD/svg10.dtd">
<svg version="1.0" xmlns="http://www.w3.org/2000/svg"
 width="643.000000pt" height="360.000000pt" viewBox="0 0 643.000000 360.000000"
 preserveAspectRatio="xMidYMid meet">
<metadata>
Created by potrace 1.16, written by Peter Selinger 2001-2019
</metadata>
<g transform="translate(0.000000,360.000000) scale(0.100000,-0.100000)"
fill="#000000" stroke="none">
<path d="M1284 2756 c5 -14 3 -17 -11 -11 -25 10 -62 13 -61 6 0 -3 0 -25 -1
-48 -1 -31 -5 -43 -16 -43 -8 0 -15 5 -15 11 0 5 5 7 10 4 6 -3 10 -1 10 4 0
16 -20 13 -26 -4 -11 -28 -24 -15 -24 24 0 32 -4 40 -22 44 -13 2 -32 8 -43
12 -16 5 -17 5 -5 -4 8 -6 11 -11 5 -11 -6 0 -10 -29 -10 -65 -1 -38 3 -60 8
-52 4 7 7 -9 5 -38 -3 -50 -3 -50 27 -50 27 0 30 3 33 36 3 32 6 36 33 37 24
1 29 -3 30 -24 1 -13 2 -30 3 -36 0 -7 14 -13 30 -13 l29 0 -2 82 -2 82 30 -9
c16 -4 31 -7 33 -5 2 2 5 -28 6 -67 2 -38 -1 -68 -5 -65 -5 3 -9 -4 -10 -16 0
-12 1 -17 3 -11 3 7 18 9 42 4 l37 -6 -3 83 c-3 83 -3 83 22 83 15 0 26 7 29
18 3 9 4 4 4 -13 -1 -16 -6 -33 -12 -37 -6 -5 -5 -8 3 -8 10 0 13 -15 11 -53
-3 -62 4 -77 31 -70 16 4 20 14 20 49 0 26 5 44 11 44 7 0 9 -9 6 -21 -3 -12
-3 -18 0 -15 4 3 12 -3 20 -14 22 -31 47 -24 68 18 14 28 19 33 23 19 2 -10
-2 -25 -10 -34 -9 -12 -9 -15 0 -9 8 5 12 1 12 -12 0 -15 8 -21 33 -24 l32 -3
-3 107 c-2 72 0 108 7 108 7 0 11 -38 11 -105 l0 -105 65 0 c64 0 65 0 64 28
0 15 -5 36 -10 47 -9 19 -9 18 -5 -2 3 -20 0 -23 -24 -23 l-29 0 -3 85 c-2 47
1 85 6 85 5 0 7 3 3 6 -3 3 -12 2 -19 -2 -20 -13 -138 -13 -131 0 4 6 2 7 -3
3 -5 -5 -9 -12 -9 -15 0 -4 -4 -13 -9 -21 -7 -10 -6 -12 3 -6 10 6 11 3 2 -14
-7 -11 -16 -21 -22 -21 -6 0 -8 -4 -5 -9 3 -4 -1 -17 -9 -27 -13 -16 -14 -17
-9 -1 4 9 1 17 -5 17 -9 0 -32 38 -35 60 -1 3 -10 15 -21 27 -15 16 -25 19
-35 13 -8 -5 -10 -10 -5 -10 6 0 5 -4 -2 -8 -15 -10 -123 -2 -123 9 0 4 8 6
18 3 14 -5 15 -4 2 5 -22 16 -50 13 -57 -5 -6 -15 -8 -15 -21 2 -14 18 -14 18
-8 0z"/>
<path d="M3358 2763 c18 -7 15 -22 -5 -19 -10 2 -26 -7 -36 -18 -15 -17 -18
-18 -13 -4 3 10 2 17 -2 17 -23 -4 -46 2 -35 9 6 4 -6 8 -27 8 -22 1 -37 -2
-34 -7 3 -5 0 -9 -7 -9 -7 0 -21 -7 -31 -17 -17 -15 -22 -11 -20 17 0 3 -12 5
-26 5 -15 0 -43 4 -62 8 -24 5 -30 4 -20 -3 13 -8 13 -10 -1 -10 -9 0 -22 -7
-29 -15 -7 -8 -16 -13 -20 -10 -5 3 -12 0 -16 -7 -11 -18 -11 -127 0 -120 5 3
7 -5 4 -16 -4 -12 -2 -20 3 -16 5 3 19 -2 31 -10 12 -9 41 -16 63 -16 23 0 47
-6 54 -12 9 -9 12 -9 7 -1 -3 6 -3 13 1 16 5 2 1 2 -7 0 -12 -3 -12 -2 -3 8 9
9 16 9 26 1 25 -21 145 -13 132 8 -3 5 0 12 6 16 8 4 9 3 5 -4 -4 -7 -2 -12 4
-12 6 0 8 -4 5 -10 -4 -6 1 -7 11 -3 10 4 15 2 11 -3 -4 -6 6 -9 24 -6 16 2
36 -1 45 -9 8 -7 14 -8 12 -3 -3 9 38 55 44 49 2 -2 3 14 3 35 0 21 -3 36 -7
34 -4 -3 -13 4 -19 15 -7 10 -18 17 -26 14 -7 -3 -16 2 -19 11 -3 9 -11 13
-17 9 -6 -3 -7 -1 -3 5 5 9 13 9 26 2 37 -20 51 -13 48 24 -1 25 -6 32 -17 28
-9 -3 -12 -1 -7 6 4 7 2 12 -3 12 -6 0 -11 -5 -11 -11 0 -6 -7 -3 -16 5 -8 9
-21 16 -27 15 -9 0 -8 -2 1 -6z"/>
<path d="M4900 2759 c0 -5 -5 -7 -10 -4 -6 4 -10 3 -9 -2 5 -26 -2 -123 -8
-120 -5 3 -14 -1 -21 -9 -8 -9 -9 -14 -2 -14 6 0 8 -5 5 -10 -4 -6 -11 -8 -16
-5 -5 4 -6 -2 -2 -11 5 -14 3 -16 -11 -11 -12 5 -15 3 -9 -6 4 -6 8 -16 8 -22
0 -5 21 -12 47 -15 26 -3 45 -3 42 1 -2 4 0 10 5 13 5 4 13 1 16 -5 4 -5 12
-8 19 -6 6 2 35 1 63 -3 29 -3 51 -4 48 -2 -3 3 2 10 11 17 17 12 32 77 26
108 -2 9 -10 17 -18 17 -13 0 -13 -2 0 -16 22 -21 20 -31 -1 -12 -10 9 -28 19
-41 23 -13 4 -22 11 -20 17 5 13 24 9 20 -4 -2 -6 4 -7 15 -3 10 4 23 8 30 8
7 0 10 4 7 9 -3 4 0 8 6 8 24 0 -11 39 -37 42 -16 2 -27 8 -26 15 2 7 -13 1
-33 -12 -20 -14 -40 -23 -44 -20 -4 3 -7 -17 -7 -44 1 -28 4 -48 6 -45 2 2 10
-1 17 -7 13 -11 8 -39 -7 -39 -4 0 -6 7 -3 15 4 8 2 15 -4 15 -5 0 -9 -8 -9
-17 0 -44 -3 -66 -9 -60 -4 3 -6 49 -5 100 2 76 -1 98 -14 111 -19 19 -25 20
-25 5z"/>
<path d="M764 2363 c2 -32 10 -116 16 -188 6 -71 13 -147 15 -169 3 -21 10
-91 15 -155 5 -64 12 -138 15 -166 2 -27 7 -79 10 -115 2 -36 9 -112 15 -170
5 -58 12 -139 16 -180 3 -41 8 -88 9 -105 2 -16 5 -50 6 -75 1 -25 6 -50 11
-56 5 -7 41 -19 81 -28 40 -9 122 -27 182 -41 61 -14 155 -35 211 -47 l101
-22 99 23 c140 33 404 92 437 98 34 7 34 6 41 78 8 81 35 383 47 525 5 63 11
133 14 155 2 22 9 96 15 165 6 69 13 150 16 181 2 31 7 87 10 125 3 38 9 99
13 135 4 37 5 71 3 78 -3 8 -191 11 -704 11 l-700 0 6 -57z m1311 -50 c-3 -16
-10 -86 -15 -158 -24 -292 -30 -354 -59 -685 -41 -452 -38 -429 -64 -435 -12
-3 -121 -27 -241 -54 -121 -28 -223 -48 -228 -45 -5 3 -8 44 -6 92 1 60 -2 87
-10 90 -7 2 -9 8 -6 14 3 5 -2 9 -12 8 -11 -1 -32 -2 -49 -1 -23 1 -27 4 -15
11 12 7 9 9 -10 8 -51 -3 -85 2 -72 11 9 5 3 8 -20 9 -59 1 -69 3 -64 10 2 4
-7 8 -22 7 -24 0 -27 5 -34 45 -3 25 -7 74 -7 109 -1 58 0 62 16 50 11 -10 14
-10 9 -1 -5 9 10 12 63 12 l71 0 0 -39 c0 -47 8 -54 92 -75 80 -19 92 -20 82
-4 -9 14 -16 185 -9 215 3 12 13 24 23 26 9 3 -71 6 -178 7 -119 1 -187 5
-175 10 17 7 17 9 3 9 -10 1 -18 3 -18 4 0 2 -6 73 -14 158 -8 85 -17 190 -20
234 -4 44 -8 100 -10 125 -2 25 -1 37 1 27 2 -9 9 -15 14 -11 5 3 7 9 4 14 -6
10 93 19 247 22 70 2 118 7 119 13 0 6 0 44 -1 85 -2 121 -33 110 316 110
l304 0 -5 -27z"/>
<path d="M1246 1965 c3 -11 9 -72 15 -135 5 -63 12 -121 14 -127 3 -9 32 -13
97 -13 l93 0 0 144 0 145 -111 3 c-107 3 -112 2 -108 -17z"/>
<path d="M2510 2388 c0 -18 4 -73 9 -123 5 -49 12 -119 15 -155 23 -263 38
-422 47 -525 6 -66 21 -230 33 -365 l21 -245 100 -23 c55 -12 118 -26 140 -31
22 -5 105 -23 185 -41 l145 -33 80 17 c44 9 107 23 140 30 231 52 350 80 353
82 6 4 18 116 47 459 8 99 20 225 25 280 5 55 17 183 25 285 9 102 20 229 25
283 6 54 10 107 10 117 0 20 -11 20 -700 20 l-700 0 0 -32z m1297 -125 c-4
-38 -9 -93 -11 -123 -13 -150 -28 -304 -37 -390 -6 -52 -12 -129 -14 -171 -2
-42 -10 -143 -19 -225 -8 -82 -18 -185 -21 -229 -6 -68 -10 -81 -25 -82 -9 -1
-62 -13 -116 -26 -55 -14 -119 -28 -144 -32 -25 -4 -49 -10 -55 -14 -5 -3 -39
-11 -75 -17 -47 -8 -67 -8 -73 0 -4 6 -6 46 -5 89 1 62 5 77 16 72 7 -3 43 2
80 10 36 9 68 12 71 8 3 -5 14 -9 25 -10 12 -1 15 2 8 9 -6 6 -36 12 -67 13
-32 1 -50 -2 -43 -7 9 -5 6 -8 -9 -8 -12 0 -29 -3 -39 -7 -10 -4 -15 -2 -11 3
3 6 -5 9 -21 6 -23 -3 -95 11 -319 63 -23 5 -27 20 -39 153 -7 82 -8 81 86 61
41 -9 50 -14 50 -32 0 -47 11 -65 43 -70 18 -3 63 -13 102 -21 39 -8 72 -11
75 -6 3 5 14 8 24 7 11 -1 20 5 22 17 1 10 9 23 16 27 10 7 10 9 -2 9 -13 0
-13 1 0 10 13 8 13 10 -2 10 -9 0 -20 -4 -23 -10 -3 -5 -1 -10 6 -10 7 0 5 -8
-6 -20 -39 -43 -45 -28 -43 108 1 117 3 128 20 129 10 1 18 -4 18 -10 0 -9 2
-9 8 -1 9 15 112 23 113 9 1 -5 0 -22 -1 -37 -1 -14 3 -29 8 -32 5 -3 7 6 4
19 -3 16 0 25 8 25 9 0 10 3 1 13 -6 8 -8 17 -4 20 3 4 2 7 -3 7 -5 0 -52 2
-104 4 -52 2 -134 4 -182 5 l-88 1 0 75 0 75 101 0 c64 0 98 4 94 10 -4 6 36
10 113 10 128 0 141 5 126 53 -4 12 -2 17 4 13 9 -5 6 113 -3 122 -1 2 -6 -38
-10 -87 l-7 -91 -84 0 c-60 0 -84 4 -85 13 0 10 -2 10 -6 0 -2 -7 -13 -13 -24
-13 -17 0 -19 8 -19 100 0 73 3 100 13 100 8 0 7 4 -3 10 -10 7 23 10 102 10
64 0 119 -3 121 -7 3 -5 -43 -8 -101 -7 l-107 1 110 -6 c61 -3 111 -6 111 -6
1 0 4 9 8 20 6 22 42 20 -440 25 -105 1 -197 6 -205 10 -10 7 -14 28 -14 72 0
35 -4 66 -10 70 -5 4 80 8 190 8 242 0 275 4 274 34 -1 17 -2 17 -6 4 -3 -11
-14 -18 -26 -18 -22 1 -22 1 -3 15 17 13 18 15 3 15 -14 0 -17 10 -17 53 0 30
3 56 6 60 4 3 139 6 302 7 l295 0 -6 -67z"/>
</g>
</svg>
